<?xml version="1.0" encoding="UTF-8" standalone="no"?>
<!-- Created with Inkscape (http://www.inkscape.org/) -->

<svg
   xmlns:dc="http://purl.org/dc/elements/1.1/"
   xmlns:cc="http://creativecommons.org/ns#"
   xmlns:rdf="http://www.w3.org/1999/02/22-rdf-syntax-ns#"
   xmlns:svg="http://www.w3.org/2000/svg"
   xmlns="http://www.w3.org/2000/svg"
   xmlns:sodipodi="http://sodipodi.sourceforge.net/DTD/sodipodi-0.dtd"
   xmlns:inkscape="http://www.inkscape.org/namespaces/inkscape"
   id="svg2"
   version="1.1"
   inkscape:version="0.48.4 r9939"
   width="256"
   height="256"
   sodipodi:docname="icon.svg"
   inkscape:export-filename="/home/martin/Desktop/favicon.png"
   inkscape:export-xdpi="90"
   inkscape:export-ydpi="90">
  <metadata
     id="metadata8">
    <rdf:RDF>
      <cc:Work
         rdf:about="">
        <dc:format>image/svg+xml</dc:format>
        <dc:type
           rdf:resource="http://purl.org/dc/dcmitype/StillImage" />
        <dc:title />
      </cc:Work>
    </rdf:RDF>
  </metadata>
  <defs
     id="defs6" />
  <sodipodi:namedview
     pagecolor="#ffffff"
     bordercolor="#666666"
     borderopacity="1"
     objecttolerance="10"
     gridtolerance="10"
     guidetolerance="10"
     inkscape:pageopacity="0"
     inkscape:pageshadow="2"
     inkscape:window-width="1680"
     inkscape:window-height="1003"
     id="namedview4"
     showgrid="false"
     inkscape:zoom="0.86764706"
     inkscape:cx="-88.894285"
     inkscape:cy="-75.808892"
     inkscape:window-x="0"
     inkscape:window-y="0"
     inkscape:window-maximized="1"
     inkscape:current-layer="svg2" />
  <path
     style="fill:#000000"
     d="M 92.58994,253.07636 C 32.998273,233.46724 0,188.71363 0,127.50207 0,101.58107 2.2389412,90.782912 11.566817,71.717441 50.02174,-6.8815779 155.98006,-24.60987 217.8015,37.211572 c 26.43747,26.437517 37.00733,52.680657 37.10554,92.126878 0.12913,51.88949 -24.04867,90.60056 -71.90868,115.13279 -19.94054,10.22117 -70.78921,15.061 -90.40842,8.60512 z m 71.16873,-37.00347 c 17.06671,-7.13091 39.89224,-29.20022 49.63145,-47.98717 3.91084,-7.54402 7.2527,-24.51448 7.42635,-37.71217 0.31674,-24.06625 -8.47999,-53.778891 -15.22574,-51.428265 -4.03841,1.407209 -130.452299,126.157365 -130.452299,128.735425 0,0.90521 6.380708,4.41916 14.179351,7.80877 18.176968,7.90047 56.215238,8.19859 74.440888,0.58341 z M 116.42233,113.26652 c 34.88382,-34.604471 63.42515,-63.40068 63.42515,-63.991587 0,-0.590908 -8.78403,-4.429059 -19.52003,-8.529167 C 100.00771,17.709423 35.387865,61.001078 34.162681,125.26897 c -0.467613,24.52915 8.307442,54.583 15.232507,52.1699 1.981095,-0.6903 32.143322,-29.56788 67.027142,-64.17235 z"
     id="path2987"
     inkscape:connector-curvature="0" />
</svg>
